<?xml version="1.0"?>
<svg width="24" height="24" xmlns="http://www.w3.org/2000/svg" xmlns:svg="http://www.w3.org/2000/svg" stroke-width="1.5">
 <g class="layer">
  <title>Layer 1</title>
  <path d="m22,17l0,-10c0,-2.21 -1.79,-4 -4,-4l-3.9,0c-0.33,0 -0.6,0.27 -0.6,0.6l0,16.8c0,0.33 0.27,0.6 0.6,0.6l3.9,0c2.21,0 4,-1.79 4,-4z" fill="#ff4554" id="svg_4" stroke="#d33b45"/>
  <path d="m2,17l0,-10c0,-2.21 1.79,-4 4,-4l3.9,0c0.33,0 0.6,0.27 0.6,0.6l0,16.8c0,0.33 -0.27,0.6 -0.6,0.6l-3.9,0c-2.21,0 -4,-1.79 -4,-4z" fill="#56ccf2" id="svg_1" stroke="#49adcc" transform="matrix(1 0 0 1 0 0)"/>
  <path d="m6.5,8c0.55,0 1,-0.45 1,-1c0,-0.55 -0.45,-1 -1,-1c-0.55,0 -1,0.45 -1,1c0,0.55 0.45,1 1,1z" fill="currentColor" id="svg_2" stroke="currentColor" stroke-linecap="round" stroke-linejoin="round" transform="matrix(1 0 0 1 0 0)"/>
  <path d="m17.5,14c0.55,0 1,-0.45 1,-1c0,-0.55 -0.45,-1 -1,-1c-0.55,0 -1,0.45 -1,1c0,0.55 0.45,1 1,1z" fill="currentColor" id="svg_3" stroke="currentColor" stroke-linecap="round" stroke-linejoin="round"/>
 </g>
</svg>